CddbId:f30f5863:[150, 1279, 2951, 5877, 8788, 11094, 14682, 17830, 21202, 24497, 26649, 29902, 32480, 36318, 39627, 42936, 46272, 49484, 52381, 55579, 58477, 61423, 64544, 67212, 70465, 73349, 76560, 79841, 83387, 86215, 88960, 92582, 96044, 99778, 102773, 106249, 108799, 112017, 115180, 118698, 122480, 126458, 129962, 133772, 137109, 140278, 143768, 147119, 150476, 153444, 156906, 159734, 163336, 166798, 170385, 174028, 176898, 180514, 184380, 188100, 191276, 194195, 197392, 201043, 204700, 207814, 210558, 214027, 216556, 219976, 223814, 226949, 230112, 233302, 237099, 240484, 243709, 246795, 250320, 252988, 254792, 257753, 260623, 263660, 266976, 268557, 270584, 273036, 275105, 276658, 279542, 282245, 284314, 286292, 288403, 290131, 291015, 292360, 293453]:294750:74:f30f5863 99 150 1279 2951 5877 8788 11094 14682 17830 21202 24497 26649 29902 32480 36318 39627 42936 46272 49484 52381 55579 58477 61423 64544 67212 70465 73349 76560 79841 83387 86215 88960 92582 96044 99778 102773 106249 108799 112017 115180 118698 122480 126458 129962 133772 137109 140278 143768 147119 150476 153444 156906 159734 163336 166798 170385 174028 176898 180514 184380 188100 191276 194195 197392 201043 204700 207814 210558 214027 216556 219976 223814 226949 230112 233302 237099 240484 243709 246795 250320 252988 254792 257753 260623 263660 266976 268557 270584 273036 275105 276658 279542 282245 284314 286292 288403 290131 291015 292360 293453 3930: 99 0 0 0 0 0 0 0 0 0 0 0 0 0 0 0 0 0 0 0 0 0 0 0 0 0 0 0 0 0 0 0 0 0 0 0 0 0 0 0 0 0 0 0 0 0 0 0 0 0 0 0 0 0 0 0 0 0 0 0 0 0 0 0 0 0 0 0 0 0 0 0 0 0 0 0 0 0 0 0 0 0 0 0 0 0 0 0 0 0 0 0 0 0 0 0 0 0 0 0 3930
num_tracks: 99
offsets: [150, 1279, 2951, 5877, 8788, 11094, 14682, 17830, 21202, 24497, 26649, 29902, 32480, 36318, 39627, 42936, 46272, 49484, 52381, 55579, 58477, 61423, 64544, 67212, 70465, 73349, 76560, 79841, 83387, 86215, 88960, 92582, 96044, 99778, 102773, 106249, 108799, 112017, 115180, 118698, 122480, 126458, 129962, 133772, 137109, 140278, 143768, 147119, 150476, 153444, 156906, 159734, 163336, 166798, 170385, 174028, 176898, 180514, 184380, 188100, 191276, 194195, 197392, 201043, 204700, 207814, 210558, 214027, 216556, 219976, 223814, 226949, 230112, 233302, 237099, 240484, 243709, 246795, 250320, 252988, 254792, 257753, 260623, 263660, 266976, 268557, 270584, 273036, 275105, 276658, 279542, 282245, 284314, 286292, 288403, 290131, 291015, 292360, 293453]
extents: [0, 0, 0, 0, 0, 0, 0, 0, 0, 0, 0, 0, 0, 0, 0, 0, 0, 0, 0, 0, 0, 0, 0, 0, 0, 0, 0, 0, 0, 0, 0, 0, 0, 0, 0, 0, 0, 0, 0, 0, 0, 0, 0, 0, 0, 0, 0, 0, 0, 0, 0, 0, 0, 0, 0, 0, 0, 0, 0, 0, 0, 0, 0, 0, 0, 0, 0, 0, 0, 0, 0, 0, 0, 0, 0, 0, 0, 0, 0, 0, 0, 0, 0, 0, 0, 0, 0, 0, 0, 0, 0, 0, 0, 0, 0, 0, 0, 0, 0]
total_length: 3930
cddb: [4077869155, 99, 150, 1279, 2951, 5877, 8788, 11094, 14682, 17830, 21202, 24497, 26649, 29902, 32480, 36318, 39627, 42936, 46272, 49484, 52381, 55579, 58477, 61423, 64544, 67212, 70465, 73349, 76560, 79841, 83387, 86215, 88960, 92582, 96044, 99778, 102773, 106249, 108799, 112017, 115180, 118698, 122480, 126458, 129962, 133772, 137109, 140278, 143768, 147119, 150476, 153444, 156906, 159734, 163336, 166798, 170385, 174028, 176898, 180514, 184380, 188100, 191276, 194195, 197392, 201043, 204700, 207814, 210558, 214027, 216556, 219976, 223814, 226949, 230112, 233302, 237099, 240484, 243709, 246795, 250320, 252988, 254792, 257753, 260623, 263660, 266976, 268557, 270584, 273036, 275105, 276658, 279542, 282245, 284314, 286292, 288403, 290131, 291015, 292360, 293453, 3930]
musicbrainz: ('99 150 1279 2951 5877 8788 11094 14682 17830 21202 24497 26649 29902 32480 36318 39627 42936 46272 49484 52381 55579 58477 61423 64544 67212 70465 73349 76560 79841 83387 86215 88960 92582 96044 99778 102773 106249 108799 112017 115180 118698 122480 126458 129962 133772 137109 140278 143768 147119 150476 153444 156906 159734 163336 166798 170385 174028 176898 180514 184380 188100 191276 194195 197392 201043 204700 207814 210558 214027 216556 219976 223814 226949 230112 233302 237099 240484 243709 246795 250320 252988 254792 257753 260623 263660 266976 268557 270584 273036 275105 276658 279542 282245 284314 286292 288403 290131 291015 292360 293453 294750', 'P9WjXHmoQWTcWn4MuTE96HxeZv8-')

CD record:
Device type    : Removable CD-ROM
Version        : 0
Response Format: 1
Vendor_info    : 'SAMSUNG '
Identification : 'CD-ROM SC-148A  '
Revision       : 'B403'
Device seems to be: Generic mmc CD-ROM.
Using generic SCSI-3/mmc   CD-ROM driver (mmc_cd).
Driver flags   : MMC-2 SWABAUDIO 
Supported modes: 
first: 1 last 99
track:   1 lba:         0 (        0) 00:02:00 adr: 1 control: 0 mode: -1
track:   2 lba:      1129 (     4516) 00:17:04 adr: 1 control: 0 mode: -1
track:   3 lba:      2801 (    11204) 00:39:26 adr: 1 control: 0 mode: -1
track:   4 lba:      5727 (    22908) 01:18:27 adr: 1 control: 0 mode: -1
track:   5 lba:      8638 (    34552) 01:57:13 adr: 1 control: 0 mode: -1
track:   6 lba:     10944 (    43776) 02:27:69 adr: 1 control: 0 mode: -1
track:   7 lba:     14532 (    58128) 03:15:57 adr: 1 control: 0 mode: -1
track:   8 lba:     17680 (    70720) 03:57:55 adr: 1 control: 0 mode: -1
track:   9 lba:     21052 (    84208) 04:42:52 adr: 1 control: 0 mode: -1
track:  10 lba:     24347 (    97388) 05:26:47 adr: 1 control: 0 mode: -1
track:  11 lba:     26499 (   105996) 05:55:24 adr: 1 control: 0 mode: -1
track:  12 lba:     29752 (   119008) 06:38:52 adr: 1 control: 0 mode: -1
track:  13 lba:     32330 (   129320) 07:13:05 adr: 1 control: 0 mode: -1
track:  14 lba:     36168 (   144672) 08:04:18 adr: 1 control: 0 mode: -1
track:  15 lba:     39477 (   157908) 08:48:27 adr: 1 control: 0 mode: -1
track:  16 lba:     42786 (   171144) 09:32:36 adr: 1 control: 0 mode: -1
track:  17 lba:     46122 (   184488) 10:16:72 adr: 1 control: 0 mode: -1
track:  18 lba:     49334 (   197336) 10:59:59 adr: 1 control: 0 mode: -1
track:  19 lba:     52231 (   208924) 11:38:31 adr: 1 control: 0 mode: -1
track:  20 lba:     55429 (   221716) 12:21:04 adr: 1 control: 0 mode: -1
track:  21 lba:     58327 (   233308) 12:59:52 adr: 1 control: 0 mode: -1
track:  22 lba:     61273 (   245092) 13:38:73 adr: 1 control: 0 mode: -1
track:  23 lba:     64394 (   257576) 14:20:44 adr: 1 control: 0 mode: -1
track:  24 lba:     67062 (   268248) 14:56:12 adr: 1 control: 0 mode: -1
track:  25 lba:     70315 (   281260) 15:39:40 adr: 1 control: 0 mode: -1
track:  26 lba:     73199 (   292796) 16:17:74 adr: 1 control: 0 mode: -1
track:  27 lba:     76410 (   305640) 17:00:60 adr: 1 control: 0 mode: -1
track:  28 lba:     79691 (   318764) 17:44:41 adr: 1 control: 0 mode: -1
track:  29 lba:     83237 (   332948) 18:31:62 adr: 1 control: 0 mode: -1
track:  30 lba:     86065 (   344260) 19:09:40 adr: 1 control: 0 mode: -1
track:  31 lba:     88810 (   355240) 19:46:10 adr: 1 control: 0 mode: -1
track:  32 lba:     92432 (   369728) 20:34:32 adr: 1 control: 0 mode: -1
track:  33 lba:     95894 (   383576) 21:20:44 adr: 1 control: 0 mode: -1
track:  34 lba:     99628 (   398512) 22:10:28 adr: 1 control: 0 mode: -1
track:  35 lba:    102623 (   410492) 22:50:23 adr: 1 control: 0 mode: -1
track:  36 lba:    106099 (   424396) 23:36:49 adr: 1 control: 0 mode: -1
track:  37 lba:    108649 (   434596) 24:10:49 adr: 1 control: 0 mode: -1
track:  38 lba:    111867 (   447468) 24:53:42 adr: 1 control: 0 mode: -1
track:  39 lba:    115030 (   460120) 25:35:55 adr: 1 control: 0 mode: -1
track:  40 lba:    118548 (   474192) 26:22:48 adr: 1 control: 0 mode: -1
track:  41 lba:    122330 (   489320) 27:13:05 adr: 1 control: 0 mode: -1
track:  42 lba:    126308 (   505232) 28:06:08 adr: 1 control: 0 mode: -1
track:  43 lba:    129812 (   519248) 28:52:62 adr: 1 control: 0 mode: -1
track:  44 lba:    133622 (   534488) 29:43:47 adr: 1 control: 0 mode: -1
track:  45 lba:    136959 (   547836) 30:28:09 adr: 1 control: 0 mode: -1
track:  46 lba:    140128 (   560512) 31:10:28 adr: 1 control: 0 mode: -1
track:  47 lba:    143618 (   574472) 31:56:68 adr: 1 control: 0 mode: -1
track:  48 lba:    146969 (   587876) 32:41:44 adr: 1 control: 0 mode: -1
track:  49 lba:    150326 (   601304) 33:26:26 adr: 1 control: 0 mode: -1
track:  50 lba:    153294 (   613176) 34:05:69 adr: 1 control: 0 mode: -1
track:  51 lba:    156756 (   627024) 34:52:06 adr: 1 control: 0 mode: -1
track:  52 lba:    159584 (   638336) 35:29:59 adr: 1 control: 0 mode: -1
track:  53 lba:    163186 (   652744) 36:17:61 adr: 1 control: 0 mode: -1
track:  54 lba:    166648 (   666592) 37:03:73 adr: 1 control: 0 mode: -1
track:  55 lba:    170235 (   680940) 37:51:60 adr: 1 control: 0 mode: -1
track:  56 lba:    173878 (   695512) 38:40:28 adr: 1 control: 0 mode: -1
track:  57 lba:    176748 (   706992) 39:18:48 adr: 1 control: 0 mode: -1
track:  58 lba:    180364 (   721456) 40:06:64 adr: 1 control: 0 mode: -1
track:  59 lba:    184230 (   736920) 40:58:30 adr: 1 control: 0 mode: -1
track:  60 lba:    187950 (   751800) 41:48:00 adr: 1 control: 0 mode: -1
track:  61 lba:    191126 (   764504) 42:30:26 adr: 1 control: 0 mode: -1
track:  62 lba:    194045 (   776180) 43:09:20 adr: 1 control: 0 mode: -1
track:  63 lba:    197242 (   788968) 43:51:67 adr: 1 control: 0 mode: -1
track:  64 lba:    200893 (   803572) 44:40:43 adr: 1 control: 0 mode: -1
track:  65 lba:    204550 (   818200) 45:29:25 adr: 1 control: 0 mode: -1
track:  66 lba:    207664 (   830656) 46:10:64 adr: 1 control: 0 mode: -1
track:  67 lba:    210408 (   841632) 46:47:33 adr: 1 control: 0 mode: -1
track:  68 lba:    213877 (   855508) 47:33:52 adr: 1 control: 0 mode: -1
track:  69 lba:    216406 (   865624) 48:07:31 adr: 1 control: 0 mode: -1
track:  70 lba:    219826 (   879304) 48:53:01 adr: 1 control: 0 mode: -1
track:  71 lba:    223664 (   894656) 49:44:14 adr: 1 control: 0 mode: -1
track:  72 lba:    226799 (   907196) 50:25:74 adr: 1 control: 0 mode: -1
track:  73 lba:    229962 (   919848) 51:08:12 adr: 1 control: 0 mode: -1
track:  74 lba:    233152 (   932608) 51:50:52 adr: 1 control: 0 mode: -1
track:  75 lba:    236949 (   947796) 52:41:24 adr: 1 control: 0 mode: -1
track:  76 lba:    240334 (   961336) 53:26:34 adr: 1 control: 0 mode: -1
track:  77 lba:    243559 (   974236) 54:09:34 adr: 1 control: 0 mode: -1
track:  78 lba:    246645 (   986580) 54:50:45 adr: 1 control: 0 mode: -1
track:  79 lba:    250170 (  1000680) 55:37:45 adr: 1 control: 0 mode: -1
track:  80 lba:    252838 (  1011352) 56:13:13 adr: 1 control: 0 mode: -1
track:  81 lba:    254642 (  1018568) 56:37:17 adr: 1 control: 0 mode: -1
track:  82 lba:    257603 (  1030412) 57:16:53 adr: 1 control: 0 mode: -1
track:  83 lba:    260473 (  1041892) 57:54:73 adr: 1 control: 0 mode: -1
track:  84 lba:    263510 (  1054040) 58:35:35 adr: 1 control: 0 mode: -1
track:  85 lba:    266826 (  1067304) 59:19:51 adr: 1 control: 0 mode: -1
track:  86 lba:    268407 (  1073628) 59:40:57 adr: 1 control: 0 mode: -1
track:  87 lba:    270434 (  1081736) 60:07:59 adr: 1 control: 0 mode: -1
track:  88 lba:    272886 (  1091544) 60:40:36 adr: 1 control: 0 mode: -1
track:  89 lba:    274955 (  1099820) 61:08:05 adr: 1 control: 0 mode: -1
track:  90 lba:    276508 (  1106032) 61:28:58 adr: 1 control: 0 mode: -1
track:  91 lba:    279392 (  1117568) 62:07:17 adr: 1 control: 0 mode: -1
track:  92 lba:    282095 (  1128380) 62:43:20 adr: 1 control: 0 mode: -1
track:  93 lba:    284164 (  1136656) 63:10:64 adr: 1 control: 0 mode: -1
track:  94 lba:    286142 (  1144568) 63:37:17 adr: 1 control: 0 mode: -1
track:  95 lba:    288253 (  1153012) 64:05:28 adr: 1 control: 0 mode: -1
track:  96 lba:    289981 (  1159924) 64:28:31 adr: 1 control: 0 mode: -1
track:  97 lba:    290865 (  1163460) 64:40:15 adr: 1 control: 0 mode: -1
track:  98 lba:    292210 (  1168840) 64:58:10 adr: 1 control: 0 mode: -1
track:  99 lba:    293303 (  1173212) 65:12:53 adr: 1 control: 0 mode: -1
track:lout lba:    294600 (  1178400) 65:30:00 adr: 1 control: 0 mode: -1
